<mxfile>
    <diagram id="JWjS3-OfVFiA6C1m6_Ri" name="Page-1">
        <mxGraphModel dx="146" dy="214" grid="1" gridSize="10" guides="1" tooltips="1" connect="1" arrows="1" fold="1" page="1" pageScale="1" pageWidth="850" pageHeight="1100" math="0" shadow="0">
            <root>
                <mxCell id="0"/>
                <mxCell id="1" parent="0"/>
                <mxCell id="2" value="" style="dashed=0;outlineConnect=0;html=1;align=center;labelPosition=center;verticalLabelPosition=bottom;verticalAlign=top;shape=mxgraph.webicons.aim;fillColor=#27E1E5;gradientColor=#0A4361" vertex="1" parent="1">
                    <mxGeometry x="30" y="60" width="102.4" height="102.4" as="geometry"/>
                </mxCell>
            </root>
        </mxGraphModel>
    </diagram>
</mxfile>